<?xml version="1.0" standalone="no"?>
<!DOCTYPE svg PUBLIC "-//W3C//DTD SVG 1.1//EN" "http://www.w3.org/Graphics/SVG/1.1/DTD/svg11.dtd">
<svg xmlns="http://www.w3.org/2000/svg" id="Layer_1" data-name="Layer 1" viewBox="0 0 432 134.71" width="432" height="134.7100067138672">
  <defs>
    <style>
      .cls-1 {
        fill: #414042;
      }
    </style>
  </defs>
  <g>
    <path class="cls-1" d="M431.09,96.68v-7.8c0-5.04-3.3-7.02-6.73-7.02-2.77,0-4.96,1.36-6.69,3.76v-3.51h-5.16v.12c.21,.91,.87,3.39,.87,5.86v8.59c0,2.48-.66,4.96-.87,5.87v.12h6.03v-.12c-.21-.91-.87-3.39-.87-5.87v-9.79c1.53-1.45,3.18-2.27,4.91-2.23,2.19,0,4.25,1.4,4.25,4.75v7.27c0,2.48-.7,4.96-.91,5.87v.12h6.07v-.12c-.21-.91-.91-3.39-.91-5.87m-30.39-13.38c3.01,0,4.38,2.89,4.5,6.69l-9.54,.7c.12-3.96,1.65-7.39,5.04-7.39m1.9,16.77c-4.46,0-6.73-3.47-6.94-8.3h13.96c0-5.57-3.1-9.91-8.88-9.91s-9.75,4.09-9.75,10.53c0,6.77,4.62,10.61,9.79,10.61,4.29,0,7.43-2.68,8.75-5.82l-.12-.12c-2.4,2.19-4.54,3.01-6.81,3.01m-23.99,.62c-3.68,0-5.2-3.96-5.2-8.3,0-4.79,2.02-8.05,5.49-8.05,1.73,0,3.14,.87,4.25,2.02v10.94c0,.33,0,.66,.04,.95-1.32,1.45-2.81,2.44-4.58,2.44m8.84-4.01v-24.74l-4.42,.58-1.07,.16,.04,.12c.33,.87,1.16,3.22,1.16,5.7v6.28c-1.4-1.9-3.51-2.89-5.82-2.89-4.42,0-8.59,3.51-8.59,10.65s3.8,10.45,8.22,10.45c2.31,0,4.67-.99,6.36-3.51,.25,1.32,.66,2.15,.99,3.18h4.05v-.12c-.21-.91-.91-3.39-.91-5.87m-28.37-11.07v-3.51h-5.16v.12c.21,.91,.87,3.39,.87,5.86v8.59c0,2.48-.66,4.96-.87,5.87v.12h6.03v-.12c-.21-.91-.87-3.39-.87-5.87v-9.99c2.52-2.44,5.62-1.53,7.52,.16h.16l.66-4.79c-3.72-1.16-6.73,.7-8.34,3.55m-12.84,6.15l-.04-.04q.08,0,.04,.04m-5.45,8.84c-2.35,0-4.25-1.78-4.25-4.3,0-2.89,2.77-5.29,7.8-4.38,.21,.04,.37,.04,.54,.04v6.48c-1.12,1.36-2.56,2.15-4.09,2.15m11.03-.17c-1.69,.62-2.64-.08-2.64-2.15v-10.04c0-3.92-2.69-6.4-7.48-6.4-2.19,0-5.24,.54-8.3,1.65v4.83h.12c1.03-1.36,5.37-4.96,7.97-4.96,1.94,0,3.39,1.65,3.39,4.75v2.64c-.54-.16-1.2-.29-1.94-.41-5.87-.91-10.9,1.78-10.9,6.44,0,3.14,2.35,6.19,6.61,6.19,3.06,0,5.12-1.53,6.32-3.14,.33,1.9,1.65,2.97,3.55,2.97,1.65,0,2.85-.87,3.35-2.27l-.04-.12Zm-22.22-12.22h-7.64v.12c.45,.91,1.94,3.39,1.94,5.82v5.57c-1.65,.99-3.63,1.78-5.78,1.78-5.24-.04-9.42-5.49-9.42-13.75s3.88-13.63,9.29-13.59c4.42,.04,8.05,4.5,9.42,6.53h.29v-5.91c-3.35-1.49-7.02-2.27-9.75-2.27-7.93,0-14.45,6.53-14.45,15.32s6.44,15.32,14.04,15.32c4.38,0,8.22-1.57,10.9-2.77v-6.23c0-2.44,.87-4.92,1.16-5.82v-.12Zm-46.42,14.78c4.05,0,7.06-2.39,8.47-5.58l-.12-.08c-2.39,2.11-4.67,2.73-6.48,2.73-4.46,0-6.9-3.55-6.94-8.71,0-4.3,1.77-8.05,5.33-8.05,3.18,0,5.66,3.35,7.06,5.7h.21l-.08-5.16c-1.78-.87-4.3-1.98-7.27-1.98-5.74,0-9.91,3.84-9.91,10.53s4.63,10.61,9.75,10.61m-18.63-.33h5.99v-.12c-.16-.91-.87-3.39-.87-5.87v-14.58h-5.12v.12c.21,.91,.91,3.39,.91,5.86l-.04,8.59c0,2.48-.66,4.96-.87,5.87v.12Zm2.81-24.98c1.61,0,2.97-1.28,2.97-2.89s-1.36-2.93-2.97-2.93-2.97,1.28-2.97,2.93,1.4,2.89,2.97,2.89m-6.98,19v-7.8c0-5.04-3.3-7.02-6.73-7.02-2.77,0-4.96,1.36-6.69,3.76v-3.51h-5.16v.12c.21,.91,.87,3.39,.87,5.86v8.59c0,2.48-.66,4.96-.87,5.87v.12h6.03v-.12c-.21-.91-.87-3.39-.87-5.87v-9.79c1.53-1.45,3.18-2.27,4.92-2.23,2.19,0,4.25,1.4,4.25,4.75v7.27c0,2.48-.7,4.96-.91,5.87v.12h6.07v-.12c-.21-.91-.91-3.39-.91-5.87m-26.26-4.91l-.04-.04q.08,0,.04,.04m-5.45,8.84c-2.35,0-4.25-1.78-4.25-4.3,0-2.89,2.77-5.29,7.8-4.38,.21,.04,.37,.04,.54,.04v6.48c-1.11,1.36-2.56,2.15-4.09,2.15m11.03-.17c-1.69,.62-2.64-.08-2.64-2.15v-10.04c0-3.92-2.68-6.4-7.48-6.4-2.19,0-5.24,.54-8.3,1.65v4.83h.12c1.03-1.36,5.37-4.96,7.97-4.96,1.94,0,3.39,1.65,3.39,4.75v2.64c-.54-.16-1.2-.29-1.94-.41-5.86-.91-10.9,1.78-10.9,6.44,0,3.14,2.35,6.19,6.61,6.19,3.06,0,5.12-1.53,6.32-3.14,.33,1.9,1.65,2.97,3.55,2.97,1.65,0,2.85-.87,3.35-2.27l-.04-.12Zm-25.32-.33c-1.86,0-2.97-1.16-2.97-3.47l-.04-12.97h5.74v-1.57h-5.74v-6.07h-.41c-1.36,2.81-3.18,5.2-6.85,6.4v1.24h3.01v13.5c0,3.55,1.77,5.82,5,5.82,2.85,0,4.92-1.82,5.95-4.09-1.4,.91-2.73,1.2-3.68,1.2m-22.01,1.45c-3.51,0-5.37-4.38-5.37-9.21s1.86-9.04,5.37-9.04,5.45,4.21,5.45,9.04-1.94,9.21-5.45,9.21m0,1.45c5.58,0,10.24-3.92,10.24-10.65s-4.67-10.49-10.24-10.49-10.16,3.8-10.16,10.49,4.58,10.65,10.16,10.65m-24.65-1.9h-5.45v-12.8h5.45c4.17,0,6.98,2.39,6.98,6.57s-2.15,6.24-6.98,6.24m-.08-26.6c3.8,0,5.62,2.77,5.62,5.95,0,3.55-2.02,6.24-5.87,6.24h-5.12v-12.18h5.37Zm4.79,12.84c3.06-1.07,5.66-3.26,5.66-6.9,0-4.17-3.76-7.52-9.04-7.52h-12.18v.12c.21,.91,.87,3.39,.87,5.86v17.76c0,2.48-.66,4.96-.87,5.87v.12h12.26c5.62,0,10.33-2.73,10.33-7.8,0-4.34-3.43-6.61-7.02-7.52"/>
    <path class="cls-1" d="M406.77,52.54l-.04-.04q.08,0,.04,.04m-5.45,8.84c-2.35,0-4.25-1.78-4.25-4.29,0-2.89,2.77-5.29,7.8-4.38,.21,.04,.37,.04,.54,.04v6.48c-1.12,1.36-2.56,2.15-4.09,2.15m11.03-.16c-1.69,.62-2.64-.08-2.64-2.15v-10.04c0-3.92-2.69-6.4-7.48-6.4-2.19,0-5.24,.54-8.3,1.65v4.83h.12c1.03-1.36,5.37-4.96,7.97-4.96,1.94,0,3.39,1.65,3.39,4.75v2.64c-.54-.16-1.2-.29-1.94-.41-5.87-.91-10.9,1.77-10.9,6.44,0,3.14,2.35,6.19,6.61,6.19,3.06,0,5.12-1.53,6.32-3.14,.33,1.9,1.65,2.97,3.55,2.97,1.65,0,2.85-.87,3.35-2.27l-.04-.12Zm-29.98-14.83v-3.51h-5.16v.12c.21,.91,.87,3.39,.87,5.87v8.59c0,2.48-.66,4.96-.87,5.86v.12h6.03v-.12c-.21-.91-.87-3.39-.87-5.86v-9.99c2.52-2.44,5.62-1.53,7.52,.17h.17l.66-4.79c-3.72-1.16-6.73,.7-8.34,3.55m-12.84,6.15l-.04-.04q.08,0,.04,.04m-5.45,8.84c-2.35,0-4.25-1.78-4.25-4.29,0-2.89,2.77-5.29,7.81-4.38,.21,.04,.37,.04,.54,.04v6.48c-1.11,1.36-2.56,2.15-4.09,2.15m11.03-.16c-1.69,.62-2.64-.08-2.64-2.15v-10.04c0-3.92-2.68-6.4-7.48-6.4-2.19,0-5.24,.54-8.3,1.65v4.83h.12c1.03-1.36,5.37-4.96,7.97-4.96,1.94,0,3.39,1.65,3.39,4.75v2.64c-.54-.16-1.2-.29-1.94-.41-5.86-.91-10.9,1.77-10.9,6.44,0,3.14,2.35,6.19,6.61,6.19,3.06,0,5.12-1.53,6.32-3.14,.33,1.9,1.65,2.97,3.55,2.97,1.65,0,2.85-.87,3.34-2.27l-.04-.12Zm-33.28,.29c-.99,0-2.15-.21-3.18-.78v-13.34c1.24-1.36,2.64-2.23,4.29-2.23,3.55,0,5.16,3.63,5.16,7.68,0,4.54-1.94,8.67-6.28,8.67m2.85-18.87c-2.39,0-4.54,.99-6.03,3.01v-12.93l-4.5,.58-.87,.12v.16c.33,.83,1.03,3.22,1.03,5.7v24.41l4.21-1.73c1.65,1.36,3.47,1.78,5.08,1.78,4.75,0,9.17-3.55,9.17-10.9,0-6.61-3.59-10.2-8.1-10.2m-21.89,3.76v-3.51h-5.16v.12c.21,.91,.87,3.39,.87,5.87v8.59c0,2.48-.66,4.96-.87,5.86v.12h6.03v-.12c-.21-.91-.87-3.39-.87-5.86v-9.99c2.52-2.44,5.62-1.53,7.52,.17h.16l.66-4.79c-3.72-1.16-6.73,.7-8.34,3.55m-12.84,6.15l-.04-.04q.08,0,.04,.04m-5.45,8.84c-2.35,0-4.25-1.78-4.25-4.29,0-2.89,2.77-5.29,7.81-4.38,.21,.04,.37,.04,.54,.04v6.48c-1.12,1.36-2.56,2.15-4.09,2.15m11.03-.16c-1.69,.62-2.64-.08-2.64-2.15v-10.04c0-3.92-2.68-6.4-7.48-6.4-2.19,0-5.24,.54-8.3,1.65v4.83h.12c1.03-1.36,5.37-4.96,7.97-4.96,1.94,0,3.39,1.65,3.39,4.75v2.64c-.54-.16-1.2-.29-1.94-.41-5.86-.91-10.9,1.77-10.9,6.44,0,3.14,2.35,6.19,6.61,6.19,3.06,0,5.12-1.53,6.32-3.14,.33,1.9,1.65,2.97,3.55,2.97,1.65,0,2.85-.87,3.34-2.27l-.04-.12Zm-33.95,.66h-5.45v-12.8h5.45c4.17,0,6.98,2.39,6.98,6.57s-2.15,6.24-6.98,6.24m-.08-26.59c3.8,0,5.62,2.77,5.62,5.95,0,3.55-2.02,6.23-5.86,6.23h-5.12v-12.18h5.37Zm4.79,12.84c3.06-1.07,5.66-3.26,5.66-6.9,0-4.17-3.76-7.52-9.04-7.52h-12.18v.12c.21,.91,.87,3.39,.87,5.87v17.76c0,2.48-.66,4.96-.87,5.86v.12h12.26c5.62,0,10.32-2.73,10.32-7.81,0-4.34-3.43-6.61-7.02-7.52m-32.83,4.42l-.04-.04q.08,0,.04,.04m-5.45,8.84c-2.35,0-4.25-1.78-4.25-4.29,0-2.89,2.77-5.29,7.8-4.38,.21,.04,.37,.04,.54,.04v6.48c-1.11,1.36-2.56,2.15-4.09,2.15m11.03-.16c-1.69,.62-2.64-.08-2.64-2.15v-10.04c0-3.92-2.68-6.4-7.48-6.4-2.19,0-5.24,.54-8.3,1.65v4.83h.12c1.03-1.36,5.37-4.96,7.97-4.96,1.94,0,3.39,1.65,3.39,4.75v2.64c-.54-.16-1.2-.29-1.94-.41-5.86-.91-10.9,1.77-10.9,6.44,0,3.14,2.35,6.19,6.61,6.19,3.06,0,5.12-1.53,6.32-3.14,.33,1.9,1.65,2.97,3.55,2.97,1.65,0,2.85-.87,3.35-2.27l-.04-.12Zm-25.32-.33c-1.86,0-2.97-1.16-2.97-3.47l-.04-12.97h5.74v-1.57h-5.74v-6.07h-.41c-1.36,2.81-3.18,5.2-6.85,6.4v1.24h3.01v13.5c0,3.55,1.78,5.82,5,5.82,2.85,0,4.91-1.82,5.95-4.09-1.4,.91-2.73,1.2-3.68,1.2m-12.68-3.43v-7.8c0-5.04-3.3-7.02-6.73-7.02-2.77,0-4.96,1.36-6.69,3.76v-3.51h-5.16v.12c.21,.91,.87,3.39,.87,5.87v8.59c0,2.48-.66,4.96-.87,5.86v.12h6.03v-.12c-.21-.91-.87-3.39-.87-5.86v-9.79c1.53-1.45,3.18-2.27,4.91-2.23,2.19,0,4.25,1.4,4.25,4.75v7.27c0,2.48-.7,4.96-.91,5.86v.12h6.07v-.12c-.21-.91-.91-3.39-.91-5.86m-26.26-4.91l-.04-.04q.08,0,.04,.04m-5.45,8.84c-2.35,0-4.25-1.78-4.25-4.29,0-2.89,2.77-5.29,7.8-4.38,.21,.04,.37,.04,.54,.04v6.48c-1.11,1.36-2.56,2.15-4.09,2.15m11.03-.16c-1.69,.62-2.64-.08-2.64-2.15v-10.04c0-3.92-2.68-6.4-7.48-6.4-2.19,0-5.24,.54-8.3,1.65v4.83h.12c1.03-1.36,5.37-4.96,7.97-4.96,1.94,0,3.39,1.65,3.39,4.75v2.64c-.54-.16-1.2-.29-1.94-.41-5.86-.91-10.9,1.77-10.9,6.44,0,3.14,2.35,6.19,6.61,6.19,3.06,0,5.12-1.53,6.32-3.14,.33,1.9,1.65,2.97,3.55,2.97,1.65,0,2.85-.87,3.34-2.27l-.04-.12Zm-32.87,2.68c5.49,0,10.37-2.73,10.37-8.51,0-3.96-2.48-7.06-8.59-9.29-5-1.69-8.55-3.55-8.55-6.61,0-2.48,2.31-4.54,5.66-4.54,3.8,0,7.6,3.34,10.28,6.36h.16v-5.41c-2.39-1.16-5.99-2.6-9.87-2.6-6.61,0-10.32,3.92-10.32,8.18,0,3.96,3.26,6.81,9.08,8.67,4.67,1.57,8.01,3.35,8.01,6.94,0,3.22-2.56,5.16-5.95,5.16-4.46,0-7.93-3.76-10.74-6.98h-.21v5.7c3.51,1.69,7.1,2.93,10.65,2.93"/>
  </g>
  <g>
    <path class="cls-1" d="M128.68,89.07l-9.12-2.31c-1.31-.54-2.76-.08-3.29,1.04,0,.01-.01,.03-.02,.04-.53,1.12,.06,2.49,1.34,3.1l8.85,2.88c1.51,.72,3.28,.23,3.91-1.1,0-.02,.01-.03,.02-.05,.63-1.33-.15-2.95-1.69-3.6Z"/>
    <path class="cls-1" d="M39.47,110.02s-.03-.01-.04-.02c-.27-.11-.71,.1-.95-.31-.18-.29-.32-.35-.63-.51-1.04-.66-2.46-.24-3.21,.95l-6.83,10.84c-.89,1.41-.62,3.23,.61,4.01,.01,0,.03,.02,.05,.03,.21,.13,.43,.22,.66,.28,.17,.16,.37,.3,.6,.4,.02,0,.03,.02,.05,.02,.19,.09,.39,.14,.59,.18,.46,.07,.87,.32,1.21,.63,.2,.18,.42,.32,.68,.43,.02,0,.03,.01,.05,.02,1.35,.54,2.98-.31,3.59-1.86l4.72-11.92c.52-1.31,.02-2.71-1.12-3.17Z"/>
    <path class="cls-1" d="M2.78,65.08l12.78,.38c1.4,.04,2.09-.84,2.12-2.07,0-.01,0-.03,0-.04,.03-1.23,.31-2.48-2-2.48l-12.39,.15c-2.53-.15-3.25-.19-3.29,1.27,0,.02,0,.03,0,.05-.04,1.46,1.12,2.7,2.78,2.75Z"/>
    <path class="cls-1" d="M7.63,42.62l11.88,4.74c1.31,.52,2.7,.02,3.16-1.13,0-.01,.01-.03,.02-.04,.11-.27,.15-.55,.14-.83,.28-.19,.52-.45,.68-.76,.66-1.04,.24-2.47-.95-3.22l-10.8-6.86c-1.4-.89-3.22-.62-4,.61,0,.01-.02,.03-.03,.05-.13,.21-.33,.56-.43,.79,0,.02-.01,.04-.02,.05-.54,.79,.83,2.19-.27,2.41-.57,.11-1,.03-1.21,.54,0,.02-.01,.03-.02,.05-.53,1.36,.31,2.99,1.86,3.6Z"/>
    <path class="cls-1" d="M71.98,18.12h.05c.3,0,1.08,.51,1.23,.57,.14,.07,.28,.11,.43,.15,.01,0,.03,0,.04,0,1.2,.27,2.46-1.12,2.76-2.5l2.73-12.53c.36-1.63-.57-2.96-1.99-3.28-.02,0-.03,0-.05-.01-.21-.05-1.11-.22-1.38-.24-.02,0-.04,0-.05,0-.47-.04-.87-.2-1.27,.02-.4-.35-.95-.28-1.5-.3-.02,0-.03,0-.05,0-1.45-.04-2.64,1.04-2.69,2.7l-.38,12.82c-.04,1.41,.9,2.56,2.14,2.59Z"/>
    <path class="cls-1" d="M96.99,110.59c-.71-1.22-2.15-1.73-3.24-1.16-.01,0-.03,.01-.04,.02-.18,.09-.34,.21-.47,.35,0,0,0,0-.01,0,0,0,0,0,0,0-.01,.01-.03,.03-.04,.04-.53,.59-1.32,.85-1.93,1.33h0c-.84,.63-1.11,1.88-.59,3.01l5.36,11.71c.7,1.52,2.37,2.29,3.7,1.68,.02,0,.03-.01,.05-.02,.6-.27,1.01-.78,1.22-1.38,.08-.22,.29-.37,.52-.37,.38,0,.76-.08,1.1-.26,.02,0,.03-.02,.05-.03,1.29-.68,1.65-2.44,.8-3.88l-6.49-11.07Z"/>
    <path class="cls-1" d="M56.6,88.9s-.01,0-.02,0c-.59-.23-1.14,.26-1.43,.99l-2.65,5.49c-.25,.62,.15,1.3,.65,1.49,0,0,.01,0,.02,0,.92,.43,1.11-.14,1.39-.74l1.92-4.79c.33-.72,.72-2.21,.13-2.44Z"/>
    <path class="cls-1" d="M44.75,83.75l1.44-.68c.42-.2,.71-.56,.8-.94,.53-.46,.68-1.16,.32-1.61,0,0-.01-.01-.01-.02-.24-.29-.64-.41-1.05-.35,.29-.39,.36-.88,.12-1.24,0,0,0-.01-.01-.02-.35-.52-1.19-.6-1.84-.17l-5.06,3.27c-.56,.36-.76,1-.47,1.44,0,0,0,.01,.01,.02,.1,.15,.25,.26,.43,.32-.07,.24-.04,.48,.1,.68,0,0,0,0,.01,.01,.07,.1,.29,.48,.34,.59,0,0,0,.01,0,.02,.05,.11,.13,.21,.22,.28,.08,.11,.17,.22,.26,.33v.02c.34,.41,1.04,.44,1.58,.05l2.81-2Z"/>
    <path class="cls-1" d="M79.04,36.98c-.16-.05-.32-.04-.48,.01-.3-.21-.41-.4-.64-.46,0,0-.01,0-.02,0-.28-.07-.44,.04-.67,.26-.11-.33-.34-.57-.66-.64,0,0-.01,0-.02,0-.52-.1-.98-.14-1.24,.97l-1.53,5.86c-.2,.76-.31,1.34,.76,1.62,0,0,.01,0,.02,0,.37,.07,.75-.1,1.03-.41,.03,.49,.28,.9,.71,1.03,0,0,.01,0,.02,0,.09,.03,.19,.03,.29,.03,1.06,.03,1.07-.17,1.39-.75l2.95-5.28c.32-.58,.23-1.27-.22-1.56,0,0-.01,0-.02-.01-.31-.2-.71-.15-1.05,.09-.06-.37-.28-.66-.61-.75,0,0-.01,0-.02,0Z"/>
    <path class="cls-1" d="M66.62,104.64c0-.71-.71-1.32-1.6-1.37-.01,0-.02,0-.03,0-.37-.02-.71,.06-.98,.21-.24-.16-.52-.27-.84-.31-.01,0-.02,0-.03,0-.83-.09-1.22,.58-1.29,1.25l-1.01,5.86c-.09,.79,.64,1.54,1.62,1.64,.01,0,.02,0,.04,0,.04,0,.09,0,.13,.01,.43,.02,.83,.17,1.2,.37,.27,.15,.59,.24,.94,.26,.01,0,.03,0,.04,0,1.04,.06,2.04,.21,1.88-1.44l-.06-6.5Z"/>
    <path class="cls-1" d="M53.81,110.49s.02,0,.04,.01c.56,.21,1.36-.46,1.6-.03,.39,.7,.73,.78,1.32,.92,.01,0,.03,0,.04,0,1.02,.24,1.97-.26,2.1-1.09l1.06-6.41c-.25-1.35-.47-1.43-1.33-1.63-.01,0-.02,0-.03,0-.22-.05-.44-.06-.64-.04-.16-.13-.34-.25-.56-.33,0,0-.02,0-.03-.01-.83-.31-1.38-.75-2.01,.6l-2.69,5.91c-.35,.77,.16,1.71,1.14,2.09Z"/>
    <path class="cls-1" d="M24.25,80.26s0,.02,.01,.04c.63,1.94,2.52,.68,3.31,.38l4.74-1.38c.67-.25,.99-1.13,.74-1.98,0,0,0-.02,0-.03-.07-.22-.16-.41-.28-.58,.04-.2,.04-.42,0-.65,0-.01,0-.02,0-.03-.04-.23-.11-.44-.21-.63,0-.09-.02-.19-.04-.28,0,0,0-.02,0-.03-.19-.86-.2-1.54-1.59-1.28l-6.31,1.38c-.82,.18-1.32,1.17-1.09,2.2,0,.01,0,.02,0,.04,.13,.57,.45,1.02,.85,1.27-.22,.44-.28,1-.11,1.56Z"/>
    <path class="cls-1" d="M23.68,56.84s0,.02,0,.04c-.24,1.02,.65,1.67,1.48,1.81l5.45,1.09c.7,.12,1.97-.2,2.17-1.07,0-.01,0-.02,0-.03,0,0,0,0,0,0,.09-.4,.21-.79,.36-1.17,0,0,0-.02,.01-.03,0,0,0-.02,.01-.03,.31-.83,.05-1.72-.6-2.02l-6.03-2.19c-.58-.26-1.57-.35-1.94,.63,0,.01,0,.02-.01,.04-.21,.57-.19,1.16,.03,1.61-.43,.26-.78,.73-.92,1.32Z"/>
    <path class="cls-1" d="M36.21,33.99c-.63-.48-1.22-.02-1.8,.77,0,0-.01,.02-.02,.03-.59,.79-.52,1.8,.15,2.24l4.93,3.78,.72,.63c.83,.76,1.42,.31,2.01-.35,0,0,.01-.02,.02-.02,.58-.66-.37-1.96-.87-2.47l-5.13-4.61Z"/>
    <path class="cls-1" d="M43.26,29.47s-.02,.01-.03,.02c-.53,.29-2.08,1.31-2.56,1.67-.01,0-.02,.02-.03,.02-.84,.63-1.07,1.68-.52,2.32l4.21,4.94c.46,.54,1.39,.55,2.1,.02,0,0,.02-.01,.03-.02,.18-.14,.33-.29,.44-.46,.2-.04,.41-.11,.61-.22,0,0,.02-.01,.03-.02,.28-.16,.51-.38,.68-.62,.16-.14,.34-.25,.55-.32,.08-.03,.17-.06,.25-.1,0,0,.02,0,.03-.01,1.36-.57,1.14-1.16,.88-1.78l-2.33-5.66c-.3-.74-1.28-.99-2.16-.56-.01,0-.02,.01-.03,.02-.28,.14-.43,.29-.69,.54-.32,.32-.96-.05-1.44,.22Z"/>
    <path class="cls-1" d="M74.71,32.09c.24,.26,.58,.47,.97,.56,.01,0,.02,0,.03,0,.86,.2,1.67-.19,1.84-.88l1.5-6.31c.19-.82-.48-1.7-1.5-1.94-.01,0-.03,0-.04,0-.79-.19-1.06-.07-1.9,.59-.08,.07-.21,.03-.25-.07-.37-1.06-.82-1.12-1.63-1.22-.01,0-.03,0-.04,0-.51-.07-1,.05-1.36,.28h0c-.98-.11-1.81,.47-1.84,1.26l.37,5.49c-.02,.35,.16,.69,.44,.94,.07,.64,.68,1.19,1.48,1.3,.01,0,.02,0,.03,0,.38,.05,.74,0,1.04-.15,.29-.14,.64-.08,.86,.15Z"/>
    <path class="cls-1" d="M111.79,65.74v-.03c.01-.94-.61-1.73-1.36-1.73l-5.81-.06c-.64,0-1.15,.62-1.17,1.42,0,0,0,.02,0,.03-.01,.8-.15,1.42,.49,1.47l6.44,.52c1.59,.15,1.4-.66,1.41-1.61Z"/>
    <path class="cls-1" d="M105.76,90.18s.01-.02,.02-.03c0,0,0,0,0,0,.3-.46,.65-.88,1.05-1.25,.15-.14,.28-.3,.4-.49,0-.01,.01-.02,.02-.03,.18-.31,.28-.63,.31-.95,.03-.39,.24-.74,.53-1,.22-.2,.41-.47,.55-.77,0-.01,0-.02,.01-.04,.81-1.64-.1-1.77-.89-2.05l-5.92-2.38c-.67-.24-1.48,.22-1.83,1.04,0,.01,0,.02-.01,.03-.09,.21-.14,.42-.15,.62-.16,.13-.3,.3-.42,.5,0,0-.01,.02-.02,.03-.18,.3-.27,.62-.28,.93-.07,.18-.15,.35-.28,.48-.07,.07-.13,.16-.19,.25,0,0-.01,.02-.02,.03-.46,.69-.41,1.57,.12,1.98l4.84,3.73c.63,.49,1.6,.21,2.15-.61Z"/>
    <path class="cls-1" d="M33.95,97.71s.02,.02,.03,.03c.71,.77,1.77,.9,2.35,.29l4.48-4.69c.49-.52,.41-1.45-.19-2.1,0,0-.01-.02-.02-.02-.45-.5-1.07-.69-1.58-.55,.24-.5,.54-.7-.26-1.73,0,0-.01-.02-.02-.03-.53-.71-1.12-.68-1.69-.25l-5.46,3.61c-.67,.5-.93,1.29-.3,2.13,0,.01,.22,.35,.23,.36,.5,.66,1.26,.95,1.87,.76,.1-.03,.19,.07,.14,.16-.68,1.05-.13,1.43,.43,2.05Z"/>
    <path class="cls-1" d="M82.25,34.88s.02,0,.03,.01c.21,.09,.42,.14,.62,.15,.13,.16,.3,.3,.49,.42,0,0,.02,.01,.03,.02,.2,.12,.77,.35,.85,.39,.01,0,.02,0,.03,.01,.15,.08,.53,.23,.57,.26,0,0,.02,.01,.03,.02,.05,.03,.34,.29,.47,.38,0,0,.02,.01,.03,.02,.72,.51,1.22,1.08,2.1-.08l4.06-5.06c.53-.66,.27-1.7-.59-2.3-.01,0-.02-.01-.03-.02-.49-.35-1.58,.13-1.56-.37,0-.11-.13-.67-1.05-1.22-.01,0-.02-.01-.03-.02-.51-.27-1.06-.31-1.51-.17-.19-.45-.58-.86-1.12-1.09-.01,0-.02-.01-.04-.02-.96-.41-1.76-.76-2.26,.71l-2.15,6.13c-.57,1.36,.22,1.49,1.03,1.84Z"/>
    <path class="cls-1" d="M103.3,40.29c-.44-.6-1.1-.88-1.67-.8-.18,.02-.21-.13-.26-.3-.29-.92,0-1.31-.51-1.86,0,0-.02-.02-.03-.03-.7-.77-1.77-.9-2.35-.29l-4.48,4.69c-.49,.52-.41,1.45,.19,2.1,0,0,.01,.02,.02,.02,.45,.5,1.07,.69,1.58,.55-.24,.5,.2,.92,.61,1.47,0,0,.01,.02,.02,.03,.53,.71,1.05,1.2,1.62,.78l5.18-3.86c.67-.5,.72-1.61,.1-2.45,0-.01-.02-.02-.02-.03Z"/>
    <path class="cls-1" d="M106.43,48.71c1.51-.55,1.08-1.34,.64-2.29,0-.01-.01-.02-.02-.03-.44-.95-1.44-1.44-2.2-1.08l-5.85,2.75c-.64,.3-.86,1.18-.49,1.98,0,0,0,.02,.01,.03,.37,.8,.46,1.43,1.86,.98l6.04-2.34Z"/>
    <path class="cls-1" d="M111.52,73.5s0-.02,0-.03c.27-1.91-.41-1.75-1.16-1.79h-.04c-.33-.02-.6-.24-.75-.53-.22-.45-.61-.75-1.08-.77l-4.18-.03c-.67-.03-1.28,.61-1.36,1.44,0,0,0,.02,0,.03-.05,.43,.05,.83,.25,1.12,.01,.67,.46,1.03,1.02,1.11l5.7,.98c.75,.1,1.48-.58,1.6-1.52Z"/>
    <path class="cls-1" d="M95.25,101.04c.57,.62,1.67,.56,2.44-.15,0,0,.02-.02,.03-.03,.4-.37,.62-.83,.66-1.27,.51-.66,.53-1.51,.01-1.99l-4.5-4.13c-.49-.46-1.37-.36-1.97,.22,0,0-.01,.01-.02,.02-.04,.04-.08,.09-.12,.13-.19,.08-.38,.2-.54,.36,0,0-.01,.01-.02,.02-.65,.6-.79,1.49-.31,2.02l4.34,4.79Z"/>
    <path class="cls-1" d="M77.21,111.59s.03,0,.04,0c1.02-.23,.9-.93,.66-1.74l-1.51-6.32c-.2-.69-1.27-.9-2.13-.7-.01,0-.02,0-.03,0-.65,.15-.91,.4-1.04,.91-.31-.45-.94-.72-1.62-.64-.01,0-.02,0-.03,0-1.43-.37-1.51,.75-1.43,1.46l.74,6.44c.1,.84-.18,1.58,2.07,1.31,.01,0,.03,0,.04,0,.82-.1,1.44-.61,1.59-1.23,.03-.11,.16-.13,.22-.04,1.06,1.73,1.63,.74,2.44,.56Z"/>
    <path class="cls-1" d="M42.66,88.78s.07,.09,.1,.13c.03,.06,.07,.11,.12,.16,0,0,0,0,.01,.01,.09,.09,.2,.15,.32,.18,.01,.12,.05,.24,.12,.35,0,0,0,0,.01,.01,.27,.4,.88,.45,1.37,.1l6-4.15c.58-.41,.81-1.15,.49-1.62,0,0,0-.01-.01-.02-.19-.28-.51-.39-.86-.37,.09-.34,.03-.69-.21-.92,0,0-.01,0-.02-.01-.41-.4-2.68,.67-3.18,1.17l-2.54,2.54-1.27,.92c-.54,.39-.74,1.06-.46,1.51,0,0,0,.01,0,.02Z"/>
    <path class="cls-1" d="M84.18,39.53s-.01,0-.02,0c-.92-.51-1.12,.04-1.44,.61l-2.99,5.26c-.39,.68-.25,1.48,.31,1.76,0,0,.01,0,.02,.01,.56,.28,.96,.62,1.68-.78l2.59-5.06c.3-.59,.32-1.56-.15-1.8Z"/>
    <path class="cls-1" d="M95.5,83.77s0-.01,0-.02c.23-.48-.04-1.12-.61-1.45,0,0-1.92-1.38-2.02-1.57-.2-.38,2.43,1.17,2.43,1.17,.61,.25,1.25,.05,1.44-.44,0,0,0-.01,0-.02,.05-.13,.06-.26,.05-.4,.12-.07,.22-.16,.29-.27,0,0,0-.01,0-.02,.29-.45,.07-1.08-.49-1.43l-1.74-.6c.45,.12,.66-.48,2.13,.03h0c.58,.16,1.14-.09,1.26-.56,0,0,0-.01,0-.02,.02-.06,.02-.13,.02-.19,.38-.63,.96-1.62,.48-1.87,0,0-4.15-2.25-6.78-2.58-.54-.07-1.56,.75-1.72,1.06,0,0,0,.01-.01,.02-.21,.4-.08,.89,.27,1.26-.36,.02-.69,.17-.87,.46,0,0,0,.01-.01,.02-.2,.31-.18,.69,0,1.03-.38,.05-.7,.26-.83,.6,0,0,0,.01,0,.02-.14,.35-.03,.76,.22,1.09-.49-.06-.94,.12-1.13,.52,0,0,0,.01,0,.02-.28,.57,.08,1.33,.77,1.69l5.36,2.76c.59,.3,1.24,.16,1.48-.31Z"/>
    <path class="cls-1" d="M29.01,98.77s-.02-.03-.03-.04c-.41-.59-1.79-.88-1.79-.88-.69-.65,.05-1.32-.36-1.84,0-.01-.02-.02-.03-.04-.18-.23-.41-.41-.66-.54-.02-.39-.14-.76-.37-1.09,0-.01-.02-.03-.03-.04-.03-.04-.06-.07-.08-.1-.65-.88-1.95-1.12-3.09-.52l-11.32,5.96c-1.47,.77-2.14,2.48-1.47,3.78,0,.01,.02,.03,.02,.05,.12,.22,.6,.99,.74,1.17,0,.01,.02,.03,.03,.04,.27,.38,1.19,1.91,1.54,2.36,.01,.01,.02,.03,.03,.04,.4,.51,.98,.8,1.62,.89-.06,.59,.06,1.17,.4,1.66,.01,.01,.02,.03,.03,.04,.83,1.2,2.61,1.33,3.93,.31l10.13-7.85c1.11-.86,1.44-2.36,.74-3.37Z"/>
    <path class="cls-1" d="M30.75,30.6c.95,.94,1.66,.15,2.54-.59,.05-.03,.1-.07,.15-.1,.01,0,.02-.02,.04-.03,.98-.75,1.74-1.33,.88-2.45l-7.69-9.94c-1.02-1.32-1.58-2.68-3.96-.8-.01,.01-.03,.02-.04,.03-.2,.15-.36,.34-.5,.54-.25,.11-.48,.27-.69,.48-.01,.01-.02,.03-.04,.04-1.53,1.3-.19,3.4,.32,4.04l8.99,8.77Z"/>
    <path class="cls-1" d="M37.68,24.79c.77,1.09,2.3,2.07,3.29,1.49,.06-.02,.11-.05,.17-.08,.01,0,.03-.01,.04-.02,.53-.28,.6-1.12,.75-1.69,.38,.05,.86-.27,1.22-.43,.01,0,.03-.01,.04-.02,1.88-1.11,1.55-1.95,.96-3.24l-5.36-11.71c-.7-1.52-3.11-1.52-3.57-1.23-.02,.01-.03,.02-.05,.02-.55,.25-.95,.7-1.17,1.24-.13,.31-.43,.5-.76,.51-.36,0-.71,.09-1.03,.26-.02,0-.03,.02-.05,.02-.11,.06-.22,.13-.31,.2-.18,.14-.37,.26-.58,.35-.15,.06-.3,.15-.44,.25-.01,.01-.03,.02-.04,.03-1.18,.85-1.47,2.23-.51,3.59l7.42,10.44Z"/>
    <path class="cls-1" d="M103.82,104.67c-.86-.85-2.08-1.03-2.96-.5,0,0,0,0,0,0,0,0-.01,0-.02,.01-.02,0-.03,.02-.05,.03-.48,.32-1.53,1.17-2.02,1.71-.02,.02-.04,.04-.05,.06,0,0-.02,.02-.03,.03h0c-.65,.78-.68,2,.01,2.99l7.31,10.52c.95,1.37,2.72,1.83,3.92,.99,.01-.01,.03-.02,.04-.03,.44-.31,.73-.74,.88-1.23,0,0,0,0,0,0,.14-.36,.83-.75,1.36-.92,0,0,0,0,0,0,.37-.11,.72-.3,1-.59,.01-.01,.03-.03,.04-.04,1.02-1.04,.86-2.88-.32-4.05l-9.12-8.99Z"/>
    <path class="cls-1" d="M60.15,116.82s-.03,0-.05,0c0,0,0,0,0,0-.57-.04-1.13-.14-1.68-.3,0,0-.02,0-.03,0-.01,0-.03,0-.04-.01-1.19-.33-2.44,.49-2.81,1.86l-3.39,12.43c-.44,1.62,.32,2.69,1.72,3.08,.02,0,.04,0,.05,.01,.49,.14,.98,.1,1.43-.08,.49-.19,1.04-.09,1.44,.26,.37,.32,1.51,.6,2.01,.64,.02,0,.03,0,.05,0,1.46,.12,2.11-.66,2.25-2.33l1.05-12.84c.12-1.41-.77-2.61-2.01-2.71Z"/>
    <path class="cls-1" d="M47.63,116.45s-.03-.01-.04-.02c-1.12-.53-2.49,.06-3.09,1.34l-3.3,9.27c-.71,1.51-.09,2.77,1.23,3.4,.02,0,.03,.02,.05,.02,1.32,.63,2.8,.37,3.45-1.18l1.89-9.65c.54-1.31,.93-2.66-.19-3.19Z"/>
    <path class="cls-1" d="M20.89,78.65s0-.04,0-.05c-.04-.45-.2-.85-.45-1.19-.38-.5-1.53-.84-1.34-1.44,.13-.41,1.18-1.15,1.06-1.58,0-.02,0-.04-.01-.05-.39-1.41-2.05-2.21-3.66-1.76l-13.9,4.65c-1.36,.38-2.18,1.62-1.85,2.82,0,.01,0,.03,.01,.04,.08,.3,.28,1.41,.3,1.73,0,.01,0,.03,0,.04,.1,1.24,1.29,2.13,2.7,2.01l14.31-2.29c1.66-.14,2.95-1.45,2.84-2.91Z"/>
    <path class="cls-1" d="M56.73,23.38c.37,1.37,1.62,2.19,2.81,1.86,.01,0,.03,0,.04-.01,.08-.02,.16-.05,.24-.08,.39-.16,.8-.24,1.22-.22,.09,0,.17,0,.26,0,.01,0,.03,0,.05,0,2.02-.26,2.12-1.3,2.01-2.71l-3.41-19.35c-.31-2.52-1.38-2.42-2.84-2.31-.02,0-.03,0-.05,0-.45,.04-.86,.21-1.21,.47-.48,.37-1.12,.49-1.7,.3-.41-.13-.86-.15-1.3-.03-.02,0-.03,0-.05,.01-.61,.22-2.57,1.53-2.13,3.15l6.06,18.92Z"/>
    <path class="cls-1" d="M86.53,16.66s.03,.01,.04,.02c1.12,.53,1.85,1.02,3.09-1.34l3.96-7.36c.71-1.51,1.24-2.04-1.35-3.47-.02,0-.03-.01-.05-.02-1.32-.63-2.69-.31-3.33,1.24l-3.4,7.63c-.23,.46-.08,2.77,1.03,3.3Z"/>
    <path class="cls-1" d="M92.78,24.71s.02,.02,.04,.03c.95,.68,2.3,.41,3.13-.6,.1-.12,.2-.24,.31-.35l8.63-8.45c.29-.29,.56-.62,.7-1,.81-2.3,.19-2.55-.81-3.27-.01-.01-.03-.02-.04-.03-1.19-.85-4.58-2.06-5.48-.64l-6.91,10.87c-1.81,2.41-.56,2.72,.45,3.43Z"/>
    <path class="cls-1" d="M104.31,32.52s.02,.03,.03,.04c.29,.42,1.01,1.14,1.47,1.3,.5,.17,.86,.6,.94,1.12,.07,.48-.03,.5,.33,.86,.01,.01,.03,.03,.04,.04,1.04,1.03,2.87,.88,4.05-.31l7.79-8.21c1.71-2.06,1.08-2.5,.2-3.37l-.03-.03c-.13-.13-.27-.23-.42-.32-.21-.12-.37-.32-.45-.54-.06-.17-.14-.33-.24-.48,0-.01-.02-.02-.03-.04-.7-1.02-2.18-1.19-3.34-.39l-9.32,6.38c-3.79,2.9-1.84,2.74-1.01,3.95Z"/>
    <path class="cls-1" d="M112.41,41.13l.02,.04c.61,1.08,2.06,1.39,3.29,.7l9.92-3.57c2.14-.96,1.61-2.21,.89-3.49,0-.01-.02-.03-.03-.05-.71-1.28-2.01-1.94-3.43-1.04l-9.62,4.11c-2.66,1.06-1.66,2.22-1.06,3.3Z"/>
    <path class="cls-1" d="M111.98,56.26s0,.04,0,.05c.02,.27,.09,.52,.19,.75,.38,.84,.55,1.77,.47,2.69-.02,.26,0,.52,.07,.78,0,.02,0,.03,.01,.05,.39,1.41,2.05,2.21,3.66,1.76l16.34-4.79c1.36-.37,1.22-1.33,.89-2.52,0-.01,0-.03-.01-.04,0,0,0,0,0,0-.16-.55-.26-1.12-.3-1.69,0,0,0-.02,0-.03,0-.01,0-.03,0-.04-.1-1.24-.33-2.42-1.74-2.31l-16.76,2.43c-1.66,.14-2.95,1.45-2.84,2.91Z"/>
    <path class="cls-1" d="M124.31,99.47l-10.6-5.32c-1.19-.76-4.23-2.67-4.94-1.66,0,.01-.02,.03-.03,.04-.72,1.01-.37,2.47,.78,3.29l11.76,7.94c1.36,.97,3.19,.79,4.04-.4,.01-.01,.02-.03,.03-.04,.85-1.2,.37-2.93-1.04-3.84Z"/>
    <path class="cls-1" d="M82.1,115.91c-.37-1.37-1.62-2.19-2.81-1.86-.01,0-.03,0-.04,.01-.3,.08-.58,.24-.81,.44-.29-.11-.6-.16-.91-.14-.01,0-.03,0-.05,0-1.23,.1-2.12,1.3-2.01,2.71l-.61,15.09c.14,1.67,1.18,2.4,2.64,2.28,.02,0,.04,0,.05,0,.84-.07,1.44-.22,2.19-.78,0,0,1.81,.1,2.62-.13,.02,0,.03,0,.05-.01,1.41-.39,1.85-1.33,1.41-2.94l-1.73-14.67Z"/>
    <path class="cls-1" d="M64.28,92.03c-.47-.13-.95-.22-1.11,.81l-1.41,5.33c-.18,.69-.42,1.33,.67,1.56,0,0,.01,0,.02,0,.73,.22,.65-.03,.9-.28,.15,.32,.42,.54,.75,.57,0,0,.01,0,.02,0,.57,.04,1.04,.04,1.1-.67l.55-6.05c.05-1.09-.29-1.11-.77-1.14,0,0-.01,0-.02,0-.12,0-.24,.01-.36,.06-.09-.09-.2-.15-.32-.18,0,0-.01,0-.02,0Z"/>
    <path class="cls-1" d="M56.78,97.69s.01,0,.02,0c.47,.12,.81,.33,.99-.25l1.86-5.05c.48-1.38-.06-1.37-.61-1.51,0,0-.01,0-.02,0-.56-.14-.8-.14-.99,.55l-1.8,4.99c-.15,.4,.09,1.15,.56,1.26Z"/>
    <path class="cls-1" d="M35.67,74.58s0,.01,0,.02c.16,.55,.86,.85,1.55,.67l5.31-1.41c.58-.16,.94-.65,.81-1.12,0,0,0-.01,0-.02-.03-.12-.11-.55-.12-.68,0,0,0-.01,0-.02-.03-.48-.54-.83-1.14-.77l-5.47,.5c-.71,.06-1.27,.59-1.23,1.16,0,0,0,.01,0,.02,.02,.33,.25,.6,.57,.75-.25,.25-.37,.58-.28,.9Z"/>
    <path class="cls-1" d="M39.52,65.3c.69,.18,1.4-.12,1.55-.67,0,0,0-.01,0-.02,.29-1.02-.3-1.14-1-1.29l-3.02-.46c-.59-.13-1.86-.31-2.05,.49,0,0,0,.01,0,.02-.13,.47,.22,.96,.81,1.12l3.7,.81Z"/>
    <path class="cls-1" d="M43.59,60.73s.03-.08,.04-.12c.12-.46,.27-.91,.44-1.35,.02-.04,.03-.08,.04-.12,0,0,0-.01,0-.02,.12-.56-.36-1.16-1.06-1.32l-4.99-1.17c-.59-.14-1.5,.05-1.6,.52,0,0,0,.01,0,.02h0c-.05,.23-.11,.44-.21,.65,0,0,0,0,0,0,0,0,0,.01,0,.02-.2,.44,.09,.98,.65,1.22l5.06,2.14c1.29,.59,1.4,.08,1.63-.45,0,0,0-.01,0-.02Z"/>
    <path class="cls-1" d="M51.51,48.51c.5-.75-.04-1.09-.55-1.6l-3.66-3.86c-.43-.43-.71-.88-1.37-.14,0,0,0,0-.01,.01-.09,.09-.15,.2-.18,.32-.12,.01-.24,.05-.34,.12,0,0,0,0-.01,0-.4,.27-.66,.54-.1,1.38l3.16,4.51c.41,.59,1.14,.81,1.62,.49,0,0,.01,0,.02-.01,.24-.16,.39-.2,.37-.72,0-.07,.06-.13,.13-.12,.3,.05,.71-.16,.91-.37,0,0,0,0,.01-.01Z"/>
    <path class="cls-1" d="M49.92,39.88c-.44,.2-.59,.79-.33,1.34l2.33,4.99c.3,.65,.82,2.42,1.35,2.19,0,0,.01,0,.02,0,.04-.02,.07-.04,.11-.06,.4-.26,.8-.5,1.23-.71,.04-.02,.07-.04,.11-.07,0,0,.01,0,.02-.01,.46-.34,.67-2.53,.26-3.12l-3.14-4.53c-.34-.5-.93-.67-1.32-.38,0,0,0,0-.01,0-.1,.07-.18,.17-.23,.28-.12,0-.25,.01-.36,.06,0,0-.01,0-.02,0Z"/>
    <path class="cls-1" d="M62.04,35.36s-.01,0-.02,0c-.19,.01-.35,.09-.49,.21-.17,.15-.42,.2-.63,.11-.17-.07-.35-.08-.53-.03,0,0-.01,0-.02,0-.55,.16-.85,.87-.67,1.56l2.33,7.47c.16,.59,.65,.95,1.12,.81,0,0,.01,0,.02,0,.12-.03,.22-.1,.32-.18,.11,.05,.24,.07,.36,.06,0,0,.01,0,.02,0,.48-.03,.74-1,.69-1.6l-1.33-7.18c-.06-.71-.59-1.28-1.16-1.24Z"/>
    <path class="cls-1" d="M71.46,43.35s.01,0,.02,0c.57,.04,1.08-.85,1.15-1.57l.49-5.49c0-1.15-.29-1.11-.77-1.15,0,0-.01,0-.02,0-.12,0-.24,.01-.36,.06-.09-.09-.2-.15-.32-.18,0,0-.01,0-.02,0-.47-.13-1.04,.08-1.11,.81l-1.41,5.33c-.18,.69-.13,1.34,.42,1.5,0,0,.01,0,.02,0,.32,.09,.89,.03,1.14-.22,.15,.32,.43,.88,.76,.9Z"/>
    <path class="cls-1" d="M92.06,46.18c-.09-.09-.33-.37-.45-.41-.01-.12-.05-.24-.12-.34,0,0,0,0,0-.01-.27-.4-.88-.45-1.37-.1l-4.49,3.17c-1.06,.7-.81,1.15-.49,1.62,0,0,0,.01,.01,.02,.19,.27,.51,.4,.86,.37-.09,.34-.03,.69,.21,.92,0,0,.01,0,.01,.01,.71,.93,1.17,.31,1.68-.2l3.9-3.89c.43-.43,.63-.81,.28-1.15,0,0,0,0-.01-.01Z"/>
    <path class="cls-1" d="M88.64,51.96c-.65,.3-1.08,1.74-.85,2.27,0,0,0,.01,0,.02,.07,.15,.18,.27,.31,.36,.21,.13,.37,.35,.37,.6,0,.18,.05,.35,.15,.5,0,0,0,.01,.01,.02,.34,.47,1.1,.51,1.69,.1l4.6-3.9c.5-.35,.66-.94,.38-1.33,0,0,0-.01-.01-.01-.07-.1-.17-.18-.28-.23,0-.12-.01-.25-.06-.36,0,0,0-.01,0-.02-.34-.9-.79-.59-1.34-.34l-4.97,2.34Z"/>
    <path class="cls-1" d="M91.74,63.04s0,.01,0,.02c.16,.55,.86,.85,1.55,.67l5.31-1.41c.58-.16,.94-.65,.81-1.12,0,0,0-.01,0-.02,0,0,0,0,0,0-.06-.22-.1-.44-.12-.66,0,0,0,0,0,0,0,0,0-.01,0-.02-.03-.48-.54-.83-1.14-.77l-5.47,.49c-.71,.07-1.27,.59-1.23,1.16,0,0,0,.01,0,.02,0,.12,.04,.23,.1,.33,.16,.29,.22,.64,.17,.97-.02,.11-.01,.23,.02,.35Z"/>
    <path class="cls-1" d="M93.05,72.74l5.47,.5c.6,.05,1.11,0,1.14-.77,0,0,0-.01,0-.02,0-.12,.09-.56,.12-.68,0,0,0-.01,0-.02,.13-.47,.47-.74-.81-1.12l-4.82-1.28c-.69-.18-1.89-.01-2.05,.54,0,0,0,.01,0,.02-.06,.21-.03,.41,.06,.6,.08,.17,.05,.37-.09,.5-.15,.15-.25,.33-.26,.54,0,0,0,.01,0,.02-.12,1.1,.52,1.1,1.23,1.16Z"/>
    <path class="cls-1" d="M86.59,91.72c.41,.59,1.14,.81,1.62,.49,0,0,.01,0,.02-.01,.27-.19,.39-.51,.36-.87,.24,.07,.49,.05,.69-.05,.28,.02,.54-.07,.72-.28,0,0,0,0,.01-.01,.35-.4,.25-1.09-.22-1.56l-4.29-4.26c-.56-.55-1.36-.62-1.78-.15,0,0,0,.01-.01,.02-.18,.2-.24,.47-.23,.75-.09,.04-.17,.09-.23,.16,0,0,0,0-.01,.01,0,0,0,0,0,0-.16,.16-.33,.31-.51,.43,0,0,0,0,0,0,0,0,0,0-.01,0-.4,.27-.44,.88-.1,1.38l3.99,3.93Z"/>
    <path class="cls-1" d="M84.91,95.15c.89-.47,.59-.79,.33-1.34l-2.67-5.47c-.3-.65-.65-.52-1.17-.29h-.02c-.3,.14-.48,.45-.51,.8-.32-.15-.51-.32-.94,.05,0,0-.01,0-.02,.01-.46,.34-.92,.51-.1,1.69l3.14,4.53c.34,.5,.93,.67,1.32,.38,0,0,.01,0,.01-.01,.1-.07,.48-.29,.59-.34,0,0,.01,0,.02,0Z"/>
    <path class="cls-1" d="M74.54,90.45s-.01,0-.02,0c-.04,0-.08,0-.12,.02-.46,.11-.92,.19-1.4,.25-.04,0-.09,.01-.13,.03,0,0-.01,0-.02,0-.55,.16-.85,.86-.67,1.56l.41,6.53c.16,.59,.65,.95,1.11,.81,0,0,.01,0,.02,0,.12-.03,.22-.1,.32-.18,.11,.05,.23,.07,.36,.06,0,0,.01,0,.02,0,.48-.03,.82-.54,.77-1.15l.51-6.69c-.07-.72-.59-1.28-1.16-1.24Z"/>
    <path class="cls-1" d="M52.2,99.28c.26-.62-.13-1.41-.88-1.78,0,0-.02,0-.03-.01-.09-.04-.18-.08-.28-.11-.18-.05-.34-.13-.48-.26-.08-.08-.17-.15-.27-.22,0,0-.02-.01-.03-.02-.69-.47-1.57-.41-1.98,.12l-.04,.07c-.27,.46-.56,.91-.94,1.27-.03,.03-.06,.06-.09,.1l-4.06,5.06c-.53,.66-.81,1.19,.59,2.3,0,0,.02,.01,.03,.02,.46,.32,.99,.45,1.46,.39,.08,.05,.14,.08,.22,.13,.15,.36,.44,.7,.84,.94,.01,0,.02,.01,.03,.02,.44,.27,.93,.36,1.37,.3,.8,.26,1.61,0,1.88-.67l1.17-3.37,1.3-2.54c.23-.39,.18-1.73,.18-1.73Z"/>
    <path class="cls-1" d="M28.95,45.18s-.01,.02-.02,.03c-.18,.28-.17,.25-.21,.55-.05,.37-.26,.69-.55,.92-.22,.18-.42,.42-.55,.7,0,.01-.01,.02-.02,.03-.44,.89,.17,1.69,.87,1.98l5.29,2.52c.65,.27,1.44-.12,1.81-.87,0,0,0-.02,.01-.03,.09-.19,.15-.39,.18-.58,.15-.12,.3-.27,.42-.44,0,0,.01-.02,.02-.03,.97-1.1,.41-1.57-.12-1.98l-4.96-3.41c-.63-.48-1.6-.21-2.15,.61Z"/>
    <path class="cls-1" d="M90.8,106.22c.18-.12,.32-.26,.44-.42,.19-.02,.39-.08,.58-.18,0,0,.02,0,.03-.01,.75-.37,1.14-1.16,.88-1.78l-2.33-5.66c-.17-.41-.55-.67-1-.74-.31-.05-.62-.12-.92-.23-.41-.16-.94-.12-1.43,.15,0,0-.02,.01-.03,.02-.2,.11-.37,.25-.51,.41-.08,.04-.17,.08-.25,.13,0,0-.02,.01-.03,.02-.54,.34-.83,.88-.82,1.38-.61,.56-.77,1.39-.34,1.95l3.72,4.86c.76,1.17,1.29,.59,1.98,.12,0,0,.02-.01,.03-.02Z"/>
    <path class="cls-1" d="M134.67,73.73c.02-.18,.03-.36,.04-.53,0-.02,0-.04,0-.05,.04-1.46-1.13-2.58-2.79-2.63l-12.77-.38c-1.41-.04-2.55,.91-2.58,2.14,0,.01,0,.03,0,.05,0,.06,0,.12,0,.18,.03,.46-.03,.93-.17,1.37-.02,.06-.04,.12-.05,.18,0,.01,0,.03,0,.04-.06,.28-.06,.55,0,.82,.02,.16,.06,.32,.12,.47-.2,.23-.35,.51-.44,.81,0,.01,0,.03-.01,.04-.32,1.19,.5,2.43,1.85,2.8l12.34,3.35c1.6,.44,3.04-.26,3.42-1.67,0-.02,0-.03,.01-.05,.16-.6,.28-1.3,0-1.83,.36-.33,.51-.75,.62-1.24,0-.02,0-.03,.01-.05,.04-.18,.19-.97,.21-1.2,0-.02,0-.04,0-.05,.02-.31,.02-.61-.04-.89h0s.17-.9,.24-1.67Z"/>
  </g>
</svg>